<?xml version="1.0" encoding="utf-8"?>
<!-- Generator: Adobe Illustrator 28.2.0, SVG Export Plug-In . SVG Version: 6.00 Build 0)  -->
<svg version="1.2" baseProfile="tiny" xmlns="http://www.w3.org/2000/svg" xmlns:xlink="http://www.w3.org/1999/xlink" x="0px"
	 y="0px" viewBox="0 0 512 512" overflow="visible" xml:space="preserve">
<g id="Layer_4">
	<linearGradient id="SVGID_1_" gradientUnits="userSpaceOnUse" x1="40.8018" y1="468.7996" x2="479.4685" y2="35.0218">
		<stop  offset="0" style="stop-color:#0067BF"/>
		<stop  offset="1" style="stop-color:#04003F"/>
	</linearGradient>
	<rect x="24" y="24" fill="url(#SVGID_1_)" width="464" height="464"/>
</g>
<g id="Layer_3">
	<path fill="none" stroke="#CECECE" stroke-width="28" stroke-miterlimit="10" d="M266.4,271.4h-40.4c-27.1,0-49.1-22-49.1-49.1
		V112.9c0-27.1,22-49.1,49.1-49.1h40.4c27.1,0,49.1,22,49.1,49.1v109.4C315.5,249.4,293.5,271.4,266.4,271.4z"/>
	<path fill="none" stroke="#8E8E8E" stroke-width="28" stroke-miterlimit="10" d="M279.9,271.4h-40.4c-27.1,0-49.1-22-49.1-49.1
		V112.9c0-27.1,22-49.1,49.1-49.1h40.4c27.1,0,49.1,22,49.1,49.1v109.4C328.9,249.4,307,271.4,279.9,271.4z"/>
</g>
<g id="Layer_2">
	<path fill="#FFC25F" stroke="#D17F1E" stroke-width="28" stroke-miterlimit="10" d="M348.9,436.3H157.1c-9.5,0-17.2-7.7-17.2-17.2
		V221.5c0-9.5,7.7-17.2,17.2-17.2h191.8c9.5,0,17.2,7.7,17.2,17.2v197.6C366.1,428.6,358.4,436.3,348.9,436.3z"/>
	<circle fill="#1C1C1C" cx="253" cy="304.5" r="24.1"/>
	<polygon fill="#1C1C1C" points="270.7,358.7 235.4,358.7 240.5,305.5 265.5,305.5 	"/>
</g>
</svg>
